<svg xmlns="http://www.w3.org/2000/svg">
    <symbol id="plus" viewBox="0 0 10 10">
        <title>plus</title>
        <path d="M5.92001 3.84V5.76V8.64C5.92001 9.17016 5.49017 9.6 4.96001 9.6C4.42985 9.6 4.00001 9.17016 4.00001 8.64L4 5.76L4.00001 3.84V0.96C4.00001 0.42984 4.42985 0 4.96001 0C5.49017 0 5.92001 0.42984 5.92001 0.96V3.84Z" ></path>
        <path d="M5.75998 5.92001L3.83998 5.92001L0.959977 5.92001C0.429817 5.92001 -2.29533e-05 5.49017 -2.29301e-05 4.96001C-2.2907e-05 4.42985 0.429817 4.00001 0.959977 4.00001L3.83998 4L5.75998 4.00001L8.63998 4.00001C9.17014 4.00001 9.59998 4.42985 9.59998 4.96001C9.59998 5.49017 9.17014 5.92001 8.63998 5.92001L5.75998 5.92001Z" ></path>
    </symbol>  
    <symbol id="minus" viewBox="0 0 10 10"> 
        <title>minus</title>
        <path d="M5.75998 5.92001L3.83998 5.92001L0.959977 5.92001C0.429817 5.92001 -2.29533e-05 5.49017 -2.29301e-05 4.96001C-2.2907e-05 4.42985 0.429817 4.00001 0.959977 4.00001L3.83998 4L5.75998 4.00001L8.63998 4.00001C9.17014 4.00001 9.59998 4.42985 9.59998 4.96001C9.59998 5.49017 9.17014 5.92001 8.63998 5.92001L5.75998 5.92001Z" ></path>
    </symbol>
    <symbol id="remove" viewBox="0 0 10 10">
        <title>remove</title>
        <path d="M8.74791 6.95572L6.49931 4.70712L8.74791 2.45852C9.16184 2.04459 9.16184 1.37338 8.74791 0.959454C8.33398 0.545525 7.66277 0.545525 7.24884 0.959454L5.00024 3.20805L2.75164 0.959454C2.33771 0.545525 1.66651 0.545525 1.25258 0.959454C0.838648 1.37338 0.838648 2.04459 1.25258 2.45852L3.50118 4.70712L1.25258 6.95572C0.838648 7.36965 0.838648 8.04086 1.25258 8.45479C1.66651 8.86872 2.33771 8.86872 2.75164 8.45479L5.00024 6.20619L7.24884 8.45479C7.66277 8.86872 8.33398 8.86872 8.74791 8.45479C9.16184 8.04086 9.16184 7.36965 8.74791 6.95572Z"/>
    </symbol>
    <symbol id="search" viewBox="0 0 487.95 487.95">
        <title>search</title>
		<path d="M481.8,453l-140-140.1c27.6-33.1,44.2-75.4,44.2-121.6C386,85.9,299.5,0.2,193.1,0.2S0,86,0,191.4s86.5,191.1,192.9,191.1c45.2,0,86.8-15.5,119.8-41.4l140.5,140.5c8.2,8.2,20.4,8.2,28.6,0C490,473.4,490,461.2,481.8,453z M41,191.4c0-82.8,68.2-150.1,151.9-150.1s151.9,67.3,151.9,150.1s-68.2,150.1-151.9,150.1S41,274.1,41,191.4z"/>
    </symbol>
    <symbol id="clean" viewBox="0 0 24 24">
        <title>clean</title>
        <path d="M6.22566 4.81096C5.83514 4.42044 5.20197 4.42044 4.81145 4.81096C4.42092 5.20148 4.42092 5.83465 4.81145 6.22517L10.5862 11.9999L4.81151 17.7746C4.42098 18.1651 4.42098 18.7983 4.81151 19.1888C5.20203 19.5793 5.8352 19.5793 6.22572 19.1888L12.0004 13.4141L17.7751 19.1888C18.1656 19.5793 18.7988 19.5793 19.1893 19.1888C19.5798 18.7983 19.5798 18.1651 19.1893 17.7746L13.4146 11.9999L19.1893 6.22517C19.5799 5.83465 19.5799 5.20148 19.1893 4.81096C18.7988 4.42044 18.1657 4.42044 17.7751 4.81096L12.0004 10.5857L6.22566 4.81096Z"/>
    </symbol>
    <symbol id="trash" viewBox="0 0 465.311 465.311">
        <title>trash</title>
        <path d="M372.811,51.002h-59.908V36.566C312.902,16.404,296.499,0,276.335,0h-87.356c-20.163,0-36.567,16.404-36.567,36.566v14.436
		H92.5c-20.726,0-37.587,16.861-37.587,37.587v38.91c0,8.284,6.716,15,15,15h7.728v307.812c0,8.284,6.716,15,15,15H372.67
		c8.284,0,15-6.716,15-15V142.499h7.728c8.284,0,15-6.716,15-15v-38.91C410.397,67.863,393.536,51.002,372.811,51.002z
		M182.412,36.566c0-3.621,2.946-6.566,6.567-6.566h87.356c3.621,0,6.567,2.946,6.567,6.566v14.436h-100.49V36.566z M84.914,88.589
		c0-4.184,3.403-7.587,7.587-7.587h280.31c4.184,0,7.587,3.403,7.587,7.587v23.91H84.914V88.589z M357.67,435.311H107.641V142.499
		H357.67V435.311z"/>
	    <path d="M137.41,413.485c5.523,0,10-4.477,10-10V166.497c0-5.523-4.477-10-10-10s-10,4.477-10,10v236.988
		C127.41,409.008,131.887,413.485,137.41,413.485z"/>
	    <path d="M200.907,413.485c5.523,0,10-4.477,10-10V166.497c0-5.523-4.477-10-10-10s-10,4.477-10,10v236.988
		C190.907,409.008,195.384,413.485,200.907,413.485z"/>
	    <path d="M264.404,413.485c5.523,0,10-4.477,10-10V166.497c0-5.523-4.477-10-10-10s-10,4.477-10,10v236.988
		C254.404,409.008,258.881,413.485,264.404,413.485z"/>
	    <path d="M327.901,413.485c5.523,0,10-4.477,10-10V166.497c0-5.523-4.477-10-10-10s-10,4.477-10,10v236.988
		C317.901,409.008,322.378,413.485,327.901,413.485z"/>
    </symbol>
    <symbol id="arrow-up" viewBox="0 0 330 330">
        <title>arrow-up</title>
	    <path id="XMLID_93_" d="M325.606,229.393l-150.004-150C172.79,76.58,168.974,75,164.996,75c-3.979,0-7.794,1.581-10.607,4.394
	    l-149.996,150c-5.858,5.858-5.858,15.355,0,21.213c5.857,5.857,15.355,5.858,21.213,0l139.39-139.393l139.397,139.393
	    C307.322,253.536,311.161,255,315,255c3.839,0,7.678-1.464,10.607-4.394C331.464,244.748,331.464,235.251,325.606,229.393z"/>
    </symbol>
</svg>